<?xml version="1.0" encoding="UTF-8" standalone="no"?>
<svg
   id="Layer_1"
   data-name="Layer 1"
   viewBox="0 0 348.1 196.96"
   version="1.1"
   sodipodi:docname="logo.svg"
   inkscape:version="1.1 (c68e22c387, 2021-05-23)"
   xmlns:inkscape="http://www.inkscape.org/namespaces/inkscape"
   xmlns:sodipodi="http://sodipodi.sourceforge.net/DTD/sodipodi-0.dtd"
   xmlns="http://www.w3.org/2000/svg"
   xmlns:svg="http://www.w3.org/2000/svg">
  <sodipodi:namedview
     id="namedview884"
     pagecolor="#505050"
     bordercolor="#eeeeee"
     borderopacity="1"
     inkscape:pageshadow="0"
     inkscape:pageopacity="0"
     inkscape:pagecheckerboard="0"
     showgrid="false"
     inkscape:zoom="4.2901737"
     inkscape:cx="160.01683"
     inkscape:cy="109.43613"
     inkscape:window-width="3440"
     inkscape:window-height="1377"
     inkscape:window-x="1912"
     inkscape:window-y="-8"
     inkscape:window-maximized="1"
     inkscape:current-layer="Layer_1" />
  <defs
     id="defs857">
    <style
       id="style855">.cls-1{fill:#99425b;}.cls-2{fill:#fff;}.cls-3{fill:#e9551d;}.cls-4{fill:#ef7c10;}.cls-5{fill:#f6a307;}.cls-6{fill:#b91d1b;}.cls-7{fill:#020203;}</style>
  </defs>
  <path
     class="cls-3"
     d="M134.49,28a67,67,0,0,1,11.84,37,62.44,62.44,0,0,0-16.46-18.52,72.41,72.41,0,0,1,8.56,36.33A32.55,32.55,0,0,0,124.62,63c4.3,10.75,8.43,23.54,2.07,33.22a93.11,93.11,0,0,0-6-15,81.23,81.23,0,0,1-10.92,46,59.53,59.53,0,0,0-8.2-29.47,126.3,126.3,0,0,1-5.71,38.43,101.78,101.78,0,0,0-13.14-33.15,133.18,133.18,0,0,1-9.84,28.19,125.09,125.09,0,0,0-9.87-28c-5.64,9.15-4.66,20.73-3.44,31.38A90.38,90.38,0,0,1,47.93,82.83,34.75,34.75,0,0,0,39.86,101c-7.64-9.9-6.49-23.7-5-36.13A61.76,61.76,0,0,0,19.08,84.77C17.73,68,25.93,52.14,33.9,37.29A60.08,60.08,0,0,1,16.35,53.42,270.55,270.55,0,0,0,26.85,22a23.19,23.19,0,0,1-7.51,10.82,7.66,7.66,0,0,1-.53,2.07C14.22,45.06,2.68,58.51,2.06,59.69c0,0,7.28-.82,12.33-5.51C6.58,69.1,19.44,96.9,25.6,103.92c-1.18-3.18-.92-7.67,1.84-9.67-1.35,29.05,22.88,46,22.88,46S47,133.69,49.8,130c1.57,8,35.9,19.14,35.9,35.14,0-16.23,36.92-28,40.76-50.29.62,0,1.57,6.59-.33,9,17.58-10.33,29.18-43.12,27.9-52.6,2.76,3,4.37,9.78,4.37,9.78s10.59-24.5-.33-45.12C153.94,28,150,24.5,146.56,22c1.11,5,3.64,9.58,6.13,14.07A26.36,26.36,0,0,0,134.49,28Z"
     transform="translate(-2.06 -3.03)"
     id="path863" />
  <path
     class="cls-4"
     d="M80.62,25C42.78,24.08,28.26,12.63,28.26,3c0,17.83-8.23,24-8.92,29.83A23.19,23.19,0,0,0,26.85,22a270.55,270.55,0,0,1-10.5,31.38A60.08,60.08,0,0,0,33.9,37.29C25.93,52.14,17.73,68,19.08,84.77A61.35,61.35,0,0,1,34.85,64.9c-1.48,12.43-2.59,26.26,5,36.23A34.7,34.7,0,0,1,48,82.93a90.45,90.45,0,0,0,11.61,51.84c-1.18-10.65-2.2-22.23,3.44-31.38a124.08,124.08,0,0,1,9.87,28,133.07,133.07,0,0,0,9.84-28.2,101.58,101.58,0,0,1,13.15,33.15,126.2,126.2,0,0,0,5.7-38.43,59.88,59.88,0,0,1,8.2,29.48,81.17,81.17,0,0,0,10.92-46,94.68,94.68,0,0,1,6,15c6.36-9.7,2.23-22.49-2.06-33.21A32.7,32.7,0,0,1,138.46,83a72.41,72.41,0,0,0-8.56-36.33,62.44,62.44,0,0,1,16.46,18.52,67.06,67.06,0,0,0-11.83-37,26.13,26.13,0,0,1,18.19,8.07c-2.49-4.49-5-9.08-6.13-14.07-5.54-3.93-9.93-5.44-12.43-19C134.13,12.63,118.49,25.91,80.62,25Z"
     transform="translate(-2.06 -3.03)"
     id="path865" />
  <path
     class="cls-5"
     d="M60,31.22c-6.69,5.81-7.93,18.3-6.65,27A21.76,21.76,0,0,1,59.6,47.62c-1.67,5,.17,10.46,2.17,15.38,2.39,5.9,5.08,11.74,9,16.72a35.1,35.1,0,0,1,1.37-20.53c0,2.46,1.32,4.73,2.5,6.89a119.6,119.6,0,0,1,11.8,31.58c5.34-10.63,3.61-23.38,7-34.76,4.85,4.85,6.06,12.13,6.82,18.92a49.92,49.92,0,0,0,4.59-28.53A29,29,0,0,1,112.75,66a46.24,46.24,0,0,0-1-23.38c-1.48-4.75-4.07-9.6-8.63-11.74a18.79,18.79,0,0,0-5.54-1.44c-3.28-.46-6.59-.72-9.9-1a64.1,64.1,0,0,0-12.23-.1,21.75,21.75,0,0,0-11.25,4.36"
     transform="translate(-2.06 -3.03)"
     id="path867" />
  <path
     class="cls-6"
     d="M61,30.11C59.11,47,95.34,57.85,104.46,31.55,107.28,23.42,61.44,25.78,61,30.11Z"
     transform="translate(-2.06 -3.03)"
     id="path869" />
  <path
     class="cls-2"
     d="M63.8,36.34c0,2.66,37.25,1.77,37.18-.66,0-.52.26-6.13.3-6.75-10.46.56-28.36.29-37.51,3.08l0,4.33Z"
     transform="translate(-2.06 -3.03)"
     id="path871" />
  <path
     class="cls-5"
     d="M82.36,23.36c6.59,6.85,41.41,8.06,50.3-2.53-6.07,5.08-14.14,4.56-16.89,3.54a7.67,7.67,0,0,0,5.64-5.9c-15.18,15.31-19.64-10.95-38.85,3.08C66.69,10,56.26,26.37,44.16,20.7l5.15,3.67s-7.58,5-16.89-3.54a21.39,21.39,0,0,0,4.23,4.69C49.63,30,76.19,28.27,82.36,23.36Z"
     transform="translate(-2.06 -3.03)"
     id="path873" />
  <path
     class="cls-3"
     d="M82.56,29.42c11.67,6.49,40.42,6.2,50.1-8.56h0c-8.89,10.56-43.71,9.35-50.3,2.5C76.19,28.27,49.63,30,36.65,25.52,48.75,35.59,72.26,35.16,82.56,29.42Z"
     transform="translate(-2.06 -3.03)"
     id="path875" />
  <path
     class="cls-3"
     d="M86.52,159.66c-6.75,3.77-15.9,24.2,1.31,40.33-1.31-15.15,14.3-23.81-1.31-40.33"
     transform="translate(-2.06 -3.03)"
     id="path877" />
  <path
     class="cls-4"
     d="M86.13,159.66c-3.31,3.77-6.72,24.2,1.74,40.33-.66-15.15,5.9-23.81-1.74-40.33"
     transform="translate(-2.06 -3.03)"
     id="path879" />
  <path
     class="cls-7"
     d="M66.59,156.41c1.34-2.65,18.72,2.66,18.72,2.66s15.31-6.1,18.1-5.15,1.87,15.71,0,15.71-18.07-8.27-18.07-8.27-15.64,8.5-17.18,8.27S65.8,158,66.59,156.41Z"
     transform="translate(-2.06 -3.03)"
     id="path881" />
  <path
     d="M 326.915,40.04633 A 89.688649,89.688649 0 1 0 310.76826,165.83464 C 349.95097,135.55353 357.1821,79.243075 326.91216,40.04633 Z"
     class="C"
     id="path1178"
     style="fill:#ff6c37;stroke-width:2.80276" />
  <path
     d="m 286.17954,62.322748 -37.8178,38.117672 -10.68693,-10.986856 c 37.22076,-37.220788 40.95687,-33.85746 48.50751,-27.130816 z"
     class="D"
     id="path1180"
     style="fill:#ffffff;stroke-width:2.80276" />
  <path
     d="m 248.36174,101.48306 a 1.3453297,1.3453297 0 0 1 -0.89688,-0.37278 L 236.70223,90.347651 a 1.3453297,1.3453297 0 0 1 0,-1.869449 c 36.69665,-36.696668 41.7052,-34.978571 50.3742,-27.130816 a 1.1967829,1.1967829 0 0 1 0.44843,0.972563 c 0.056,0.364358 -0.0841,0.737124 -0.37278,0.972562 l -37.81775,37.820579 a 1.4182017,1.4182017 0 0 1 -0.97259,0.37277 z m -8.82029,-12.032294 8.82029,8.820315 35.87547,-35.875457 a 8.0719783,8.0719783 0 0 0 -10.61408,-1.793772 c -6.50247,2.914878 -16.96519,11.808067 -34.08168,28.848914 z"
     class="C"
     id="path1182"
     style="fill:#ff6c37;stroke-width:2.80276" />
  <path
     d="m 259.20009,110.97885 -10.31423,-10.53843 37.8178,-37.372133 c 10.16567,9.941429 -4.93289,26.533826 -27.50357,47.907753 z"
     class="D"
     id="path1184"
     style="fill:#ffffff;stroke-width:2.80276" />
  <path
     d="m 259.20009,112.32417 a 1.5695513,1.5695513 0 0 1 -0.89689,-0.37276 l -10.53844,-10.3142 a 1.5695513,1.5695513 0 0 1 0,-1.19679 1.4490322,1.4490322 0 0 1 0,-0.972557 l 37.81775,-37.817777 a 1.4182017,1.4182017 0 0 1 1.94235,0 11.592257,11.592257 0 0 1 3.7361,8.893189 c 0,10.089972 -11.51096,22.794929 -31.09113,41.332465 a 1.5695513,1.5695513 0 0 1 -0.97257,0.44843 z m -8.37189,-11.88375 8.44475,8.44195 c 14.94717,-14.125962 29.22449,-28.700366 29.29736,-38.566119 a 8.5204215,8.5204215 0 0 0 -1.94235,-5.754087 z"
     class="C"
     id="path1186"
     style="fill:#ff6c37;stroke-width:2.80276" />
  <path
     d="m 237.97188,89.677789 7.475,7.474983 a 0.44844324,0.44844324 0 0 1 0,0.672662 l -15.77119,3.363326 a 1.4938765,1.4938765 0 0 1 -1.34535,-2.542101 l 9.19312,-9.117419 c 0,0 0.29986,0 0.44842,0.148549 z"
     class="D"
     id="path1188"
     style="fill:#ffffff;stroke-width:2.80276" />
  <path
     d="m 229.30292,102.68264 a 2.914881,2.914881 0 0 1 -2.46645,-1.42101 2.842009,2.842009 0 0 1 0.52411,-3.363315 l 9.11743,-9.193089 a 1.7937729,1.7937729 0 0 1 2.39076,0 l 7.475,7.474989 c 0.4428,0.420416 0.61659,1.056643 0.44842,1.645219 -0.16818,0.588587 -0.66146,1.056653 -1.26967,1.196792 l -15.77118,3.363314 z m 8.37189,-11.359626 -8.44475,8.444744 13.9774,-2.990553 z m 0.67263,-0.672668 z"
     class="C"
     id="path1190"
     style="fill:#ff6c37;stroke-width:2.80276" />
  <path
     d="m 306.2866,41.318789 c -5.40936,-5.21876 -13.90732,-5.437374 -19.58016,-0.512907 -5.67278,4.924468 -6.64254,13.377623 -2.22541,19.459636 4.41717,6.082012 12.74423,7.786096 19.19062,3.92388 L 293.50599,54.02375 Z"
     class="D"
     id="path1192"
     style="fill:#ffffff;stroke-width:2.80276" />
  <path
     d="m 296.19664,67.625591 a 15.835651,15.835651 0 0 1 -14.45109,-9.832118 15.883299,15.883299 0 0 1 3.36334,-17.147347 16.003817,16.003817 0 0 1 22.42216,0 c 0.28585,0.241037 0.44842,0.596987 0.44842,0.972558 a 1.2892742,1.2892742 0 0 1 -0.44842,0.972563 l -12.10799,11.435303 9.19307,9.044541 a 1.2612465,1.2612465 0 0 1 0.37277,1.121106 1.3453297,1.3453297 0 0 1 -0.59698,0.972563 16.256067,16.256067 0 0 1 -8.22049,2.466435 z m 0,-29.000261 c -5.32528,0.02804 -10.08995,3.23159 -12.08833,8.128028 -1.99838,4.896445 -0.91094,10.532813 2.82234,14.294132 a 13.074923,13.074923 0 0 0 14.49874,2.766336 l -8.82029,-8.820318 a 1.1967829,1.1967829 0 0 1 0,-1.86945 l 11.65953,-11.735197 a 13.411255,13.411255 0 0 0 -8.07199,-2.766336 z"
     class="C"
     id="path1194"
     style="fill:#ff6c37;stroke-width:2.80276" />
  <path
     d="m 306.51081,41.543013 -12.78062,12.704957 10.16566,10.165647 a 15.471292,15.471292 0 0 0 2.83917,-2.093668 14.947174,14.947174 0 0 0 -0.22421,-20.776936 z"
     class="D"
     id="path1196"
     style="fill:#ffffff;stroke-width:2.80276" />
  <path
     d="m 303.66881,65.534723 a 1.1211081,1.1211081 0 0 1 -0.89688,-0.372767 L 292.60627,54.996308 a 1.1967829,1.1967829 0 0 1 0,-1.869444 l 12.70497,-12.480738 a 1.3453297,1.3453297 0 0 1 2.24219,0 15.695513,15.695513 0 0 1 0,22.422161 13.677519,13.677519 0 0 1 -2.99051,2.390764 1.2051912,1.2051912 0 0 1 -0.89689,0.07567 z m -8.22054,-11.508173 8.44475,8.444746 a 14.350183,14.350183 0 0 0 1.64526,-1.34533 13.229075,13.229075 0 0 0 3.88741,-9.341633 12.836687,12.836687 0 0 0 -3.21478,-8.520419 z"
     class="C"
     id="path1198"
     style="fill:#ff6c37;stroke-width:2.80276" />
  <path
     d="m 287.74906,63.892302 a 5.4597961,5.4597961 0 0 0 -7.47494,0 l -33.85471,33.778988 5.60558,5.68121 35.79976,-31.391024 a 5.5410764,5.5410764 0 0 0 -0.0757,-8.071979 z"
     class="D"
     id="path1200"
     style="fill:#ffffff;stroke-width:2.80276" />
  <path
     d="m 251.72508,104.70064 a 1.3453297,1.3453297 0 0 1 -0.89688,-0.37277 l -5.68122,-5.681211 a 1.3453297,1.3453297 0 0 1 0,-1.869454 l 33.85748,-33.708918 a 6.8779978,6.8779978 0 0 1 11.73516,5.081424 7.0349532,7.0349532 0 0 1 -2.31788,4.932871 l -35.79977,31.391028 a 1.2752604,1.2752604 0 0 1 -0.89689,0.22422 z m -3.96032,-7.02935 3.73612,3.81177 35.12708,-30.569818 c 0.86884,-0.756752 1.3874,-1.83862 1.42101,-2.990559 0.0336,-1.151936 -0.42043,-2.27865 -1.26967,-3.063427 a 4.1845359,4.1845359 0 0 0 -5.90543,0 z"
     class="C"
     id="path1202"
     style="fill:#ff6c37;stroke-width:2.80276" />
  <path
     d="m 220.18549,136.16454 a 0.75674797,0.75674797 0 0 0 0,0.89688 l 1.49387,6.50243 a 1.9283059,1.9283059 0 0 1 -0.93049,1.96194 1.8218006,1.8218006 0 0 1 -2.13572,-0.21581 l -10.23853,-9.86576 31.91515,-32.16739 h 11.06255 l 7.47499,7.475 a 169.6797,169.6797 0 0 1 -38.64182,25.41271 z"
     class="D"
     id="path1204"
     style="fill:#ffffff;stroke-width:2.80276" />
  <path
     d="m 219.51281,147.15139 c -0.8464,-0.0168 -1.68164,-0.36435 -2.24219,-0.97256 l -9.79007,-9.79007 a 1.1967829,1.1967829 0 0 1 0,-1.86944 l 32.13654,-32.21226 a 1.2612465,1.2612465 0 0 1 0.67268,-0.37276 h 11.13541 a 1.3453297,1.3453297 0 0 1 0.89688,0 l 7.47501,7.47499 a 1.1939801,1.1939801 0 0 1 0.37276,1.04544 1.2051912,1.2051912 0 0 1 -0.44847,0.97256 l -0.59698,0.52412 a 183.10498,183.10498 0 0 1 -38.34191,24.5887 l 1.421,6.05398 a 3.2231858,3.2231858 0 0 1 -3.06337,3.96032 z m -9.11739,-11.73519 8.81754,8.89319 a 0.44844324,0.44844324 0 0 0 0.59698,0 0.44844324,0.44844324 0 0 0 0,-0.52412 l -1.49387,-6.50242 a 2.0852611,2.0852611 0 0 1 1.1211,-2.39077 183.74962,183.74962 0 0 0 37.36933,-24.06738 l -6.12964,-6.12967 h -10.01432 z m 10.76265,1.34533 z"
     class="C"
     id="path1206"
     style="fill:#ff6c37;stroke-width:2.80276" />
  <path
     d="m 200.67822,143.11541 7.47499,-7.47499 11.511,11.51097 -18.31052,-1.26965 a 1.4966793,1.4966793 0 0 1 -0.67266,-2.76353 z"
     class="D"
     id="path1208"
     style="fill:#ffffff;stroke-width:2.80276" />
  <path
     d="m 219.88559,148.27251 -18.23761,-1.26966 c -1.08187,-0.10086 -2.01239,-0.84083 -2.39357,-1.83021 -0.38117,-0.98938 -0.14854,-2.16373 0.59979,-2.95412 l 7.475,-7.47499 a 1.3453297,1.3453297 0 0 1 1.86944,0 l 11.43532,11.4353 a 1.266852,1.266852 0 0 1 0,1.49388 1.4210045,1.4210045 0 0 1 -0.74837,0.59699 z m -18.23761,-4.18454 14.94719,0.97257 -8.22055,-7.69922 z"
     class="C"
     id="path1210"
     style="fill:#ff6c37;stroke-width:2.80276" />
  <path
     d="m 252.39777,104.17932 -15.09856,2.3179 8.74465,-8.668974 z"
     class="D"
     id="path1212"
     style="fill:#ffffff;stroke-width:2.80276" />
  <path
     d="m 237.29921,107.91262 a 1.2780631,1.2780631 0 0 1 -1.1968,-0.74835 1.2612465,1.2612465 0 0 1 0,-1.49387 l 8.66901,-8.744642 a 1.4182017,1.4182017 0 0 1 1.94229,0 l 6.35668,6.351072 a 1.2612465,1.2612465 0 0 1 0,1.34533 1.317302,1.317302 0 0 1 -1.0454,0.97256 l -14.94722,2.3179 z m 8.74465,-8.147663 -4.8572,4.857203 8.37188,-1.26966 z"
     class="C"
     id="path1214"
     style="fill:#ff6c37;stroke-width:2.80276" />
  <path
     d="m 252.39777,104.17371 -10.53844,1.34533 a 1.3453297,1.3453297 0 0 1 -1.26965,-2.24221 l 5.45696,-5.456998 z"
     class="D"
     id="path1216"
     style="fill:#ffffff;stroke-width:2.80276" />
  <path
     d="m 241.55942,106.94286 a 2.7663342,2.7663342 0 0 1 -2.39075,-1.42101 2.6906594,2.6906594 0 0 1 0.44842,-3.21479 l 5.45702,-5.456985 a 1.4182017,1.4182017 0 0 1 1.94233,0 l 6.35385,6.353885 a 1.3453297,1.3453297 0 0 1 -0.82118,2.31789 l -10.46273,1.34533 z m 0,-2.76634 7.92342,-0.97256 -3.51185,-3.511873 -4.48443,4.484433 z m 65.02425,-54.037413 a 1.1211081,1.1211081 0 0 0 -1.42099,-0.448443 1.037025,1.037025 0 0 0 -0.52129,0.616613 1.0566444,1.0566444 0 0 0 0.0728,0.804393 c 0.52411,1.10149 0.37838,2.404777 -0.37278,3.363323 a 0.94733634,0.94733634 0 0 0 -0.28029,0.709101 1.0650527,1.0650527 0 0 0 0.28029,0.7091 0.81280335,0.81280335 0 0 0 0.59698,0 0.98096956,0.98096956 0 0 0 0.97259,-0.299895 5.1570972,5.1570972 0 0 0 0.67262,-5.456991 z"
     class="C"
     id="path1218"
     style="fill:#ff6c37;stroke-width:2.80276" />
</svg>
